{"asset":{"generator":"Khronos glTF Blender I/O v0.9.36","version":"2.0"},"scene":0,"scenes":[{"name":"Scene","nodes":[0]}],"nodes":[{"mesh":0,"name":"barrel_small_stack"}],"materials":[{"name":"texture","pbrMetallicRoughness":{"baseColorTexture":{"index":0,"texCoord":0},"metallicFactor":0,"roughnessFactor":0.44999998807907104}}],"meshes":[{"name":"Cylinder.004","primitives":[{"attributes":{"POSITION":0,"NORMAL":1,"TEXCOORD_0":2},"indices":3,"material":0}]}],"textures":[{"source":0}],"images":[{"name":"dungeon_texture","uri":"dungeon_texture.png"}],"accessors":[{"bufferView":0,"componentType":5126,"count":2316,"max":[0.9250689148902893,1.7701389789581299,0.5000000596046448],"min":[-0.9250713586807251,7.502316634599993e-07,-0.5],"type":"VEC3"},{"bufferView":1,"componentType":5126,"count":2316,"type":"VEC3"},{"bufferView":2,"componentType":5126,"count":2316,"type":"VEC2"},{"bufferView":3,"componentType":5123,"count":3447,"type":"SCALAR"}],"bufferViews":[{"buffer":0,"byteLength":27792,"byteOffset":0},{"buffer":0,"byteLength":27792,"byteOffset":27792},{"buffer":0,"byteLength":18528,"byteOffset":55584},{"buffer":0,"byteLength":6894,"byteOffset":74112}],"buffers":[{"byteLength":81008,"uri":"barrel_small_stack.bin"}]}