{"asset":{"generator":"Khronos glTF Blender I/O v0.9.36","version":"2.0"},"scene":0,"scenes":[{"name":"Scene","nodes":[0]}],"nodes":[{"mesh":0,"name":"barrel_large"}],"materials":[{"name":"texture","pbrMetallicRoughness":{"baseColorTexture":{"index":0,"texCoord":0},"metallicFactor":0,"roughnessFactor":0.44999998807907104}}],"meshes":[{"name":"Cylinder.000","primitives":[{"attributes":{"POSITION":0,"NORMAL":1,"TEXCOORD_0":2},"indices":3,"material":0}]}],"textures":[{"source":0}],"images":[{"name":"dungeon_texture","uri":"dungeon_texture.png"}],"accessors":[{"bufferView":0,"componentType":5126,"count":745,"max":[0.8999999761581421,2.0000009536743164,0.9000003337860107],"min":[-0.9000000357627869,9.5367431640625e-07,-0.8999995589256287],"type":"VEC3"},{"bufferView":1,"componentType":5126,"count":745,"type":"VEC3"},{"bufferView":2,"componentType":5126,"count":745,"type":"VEC2"},{"bufferView":3,"componentType":5123,"count":1683,"type":"SCALAR"}],"bufferViews":[{"buffer":0,"byteLength":8940,"byteOffset":0},{"buffer":0,"byteLength":8940,"byteOffset":8940},{"buffer":0,"byteLength":5960,"byteOffset":17880},{"buffer":0,"byteLength":3366,"byteOffset":23840}],"buffers":[{"byteLength":27208,"uri":"barrel_large.bin"}]}