{"asset":{"generator":"Khronos glTF Blender I/O v0.9.36","version":"2.0"},"scene":0,"scenes":[{"name":"Scene","nodes":[0]}],"nodes":[{"mesh":0,"name":"bottle_A_brown"}],"materials":[{"name":"texture","pbrMetallicRoughness":{"baseColorTexture":{"index":0,"texCoord":0},"metallicFactor":0,"roughnessFactor":0.44999998807907104}}],"meshes":[{"name":"Cube.15954","primitives":[{"attributes":{"POSITION":0,"NORMAL":1,"TEXCOORD_0":2},"indices":3,"material":0}]}],"textures":[{"source":0}],"images":[{"name":"dungeon_texture","uri":"dungeon_texture.png"}],"accessors":[{"bufferView":0,"componentType":5126,"count":256,"max":[0.18420502543449402,0.885714590549469,0.1842053383588791],"min":[-0.1842050403356552,1.3634562492370605e-06,-0.18420475721359253],"type":"VEC3"},{"bufferView":1,"componentType":5126,"count":256,"type":"VEC3"},{"bufferView":2,"componentType":5126,"count":256,"type":"VEC2"},{"bufferView":3,"componentType":5123,"count":432,"type":"SCALAR"}],"bufferViews":[{"buffer":0,"byteLength":3072,"byteOffset":0},{"buffer":0,"byteLength":3072,"byteOffset":3072},{"buffer":0,"byteLength":2048,"byteOffset":6144},{"buffer":0,"byteLength":864,"byteOffset":8192}],"buffers":[{"byteLength":9056,"uri":"bottle_A_brown.bin"}]}