{"asset":{"generator":"Khronos glTF Blender I/O v0.9.36","version":"2.0"},"scene":0,"scenes":[{"name":"Scene","nodes":[0]}],"nodes":[{"mesh":0,"name":"box_small"}],"materials":[{"name":"texture","pbrMetallicRoughness":{"baseColorTexture":{"index":0,"texCoord":0},"metallicFactor":0,"roughnessFactor":0.44999998807907104}}],"meshes":[{"name":"Cube.15963","primitives":[{"attributes":{"POSITION":0,"NORMAL":1,"TEXCOORD_0":2},"indices":3,"material":0}]}],"textures":[{"source":0}],"images":[{"name":"dungeon_texture","uri":"dungeon_texture.png"}],"accessors":[{"bufferView":0,"componentType":5126,"count":330,"max":[0.5,1,0.5],"min":[-0.5,2.9802322387695312e-08,-0.5],"type":"VEC3"},{"bufferView":1,"componentType":5126,"count":330,"type":"VEC3"},{"bufferView":2,"componentType":5126,"count":330,"type":"VEC2"},{"bufferView":3,"componentType":5123,"count":564,"type":"SCALAR"}],"bufferViews":[{"buffer":0,"byteLength":3960,"byteOffset":0},{"buffer":0,"byteLength":3960,"byteOffset":3960},{"buffer":0,"byteLength":2640,"byteOffset":7920},{"buffer":0,"byteLength":1128,"byteOffset":10560}],"buffers":[{"byteLength":11688,"uri":"box_small.bin"}]}