{"asset":{"generator":"Khronos glTF Blender I/O v0.9.36","version":"2.0"},"scene":0,"scenes":[{"extras":{"blenderkitUI":{"assetbar_on":0,"turn_off":0},"uuid":"4a142ebb-8505-401f-a0ed-ed4f2df5c0a5","FBXBundleSettings":{"path":"//export 1.0\\standard\\","mode_bundle":1,"mode_pivot":3,"recent":"{\"selection\": [\"chest\", \"chest_lid\"], \"bundles\": [\"chest\"]}","target_platform":0,"collapseBundles":1,"include_children":1},"FBXBundle_modifier_rename":{"active":0},"glTF2ExportSettings":{"export_all_influences":0,"export_animations":1,"export_apply":1,"export_cameras":0,"export_colors":1,"export_copyright":"","export_current_frame":0,"export_displacement":0,"export_draco_mesh_compression_enable":0,"export_draco_mesh_compression_level":6,"export_draco_normal_quantization":10,"export_draco_position_quantization":14,"export_draco_texcoord_quantization":12,"export_extras":1,"export_force_sampling":0,"export_format":"GLB","export_frame_range":1,"export_frame_step":1,"export_image_format":"NAME","export_lights":0,"export_materials":1,"export_morph":1,"export_morph_normal":1,"export_morph_tangent":0,"export_normals":1,"export_selected":1,"export_skins":1,"export_tangents":1,"export_texcoords":1,"export_yup":1}},"name":"Scene","nodes":[1]}],"nodes":[{"mesh":0,"name":"chest_lid","translation":[0,0.5,-0.5648832321166992]},{"children":[0],"mesh":1,"name":"chest"}],"materials":[{"name":"texture","pbrMetallicRoughness":{"baseColorTexture":{"index":0,"texCoord":0},"metallicFactor":0,"roughnessFactor":0.44999998807907104}}],"meshes":[{"name":"Cube.11163","primitives":[{"attributes":{"POSITION":0,"NORMAL":1,"TANGENT":2,"TEXCOORD_0":3},"indices":4,"material":0}]},{"name":"Cube.11164","primitives":[{"attributes":{"POSITION":5,"NORMAL":6,"TANGENT":7,"TEXCOORD_0":8},"indices":9,"material":0}]}],"textures":[{"source":0}],"images":[{"name":"dungeon_texture","uri":"dungeon_texture.png"}],"accessors":[{"bufferView":0,"componentType":5126,"count":724,"max":[0.8500000238418579,0.800000011920929,1.3106862306594849],"min":[-0.8500000238418579,-0.1650022566318512,-0.1351175606250763],"type":"VEC3"},{"bufferView":1,"componentType":5126,"count":724,"type":"VEC3"},{"bufferView":2,"componentType":5126,"count":724,"type":"VEC4"},{"bufferView":3,"componentType":5126,"count":724,"type":"VEC2"},{"bufferView":4,"componentType":5123,"count":1386,"type":"SCALAR"},{"bufferView":5,"componentType":5126,"count":480,"max":[0.800000011920929,0.5999998450279236,0.6458025574684143],"min":[-0.800000011920929,-2.384185791015625e-07,-0.6000003814697266],"type":"VEC3"},{"bufferView":6,"componentType":5126,"count":480,"type":"VEC3"},{"bufferView":7,"componentType":5126,"count":480,"type":"VEC4"},{"bufferView":8,"componentType":5126,"count":480,"type":"VEC2"},{"bufferView":9,"componentType":5123,"count":798,"type":"SCALAR"}],"bufferViews":[{"buffer":0,"byteLength":8688,"byteOffset":0},{"buffer":0,"byteLength":8688,"byteOffset":8688},{"buffer":0,"byteLength":11584,"byteOffset":17376},{"buffer":0,"byteLength":5792,"byteOffset":28960},{"buffer":0,"byteLength":2772,"byteOffset":34752},{"buffer":0,"byteLength":5760,"byteOffset":37524},{"buffer":0,"byteLength":5760,"byteOffset":43284},{"buffer":0,"byteLength":7680,"byteOffset":49044},{"buffer":0,"byteLength":3840,"byteOffset":56724},{"buffer":0,"byteLength":1596,"byteOffset":60564}],"buffers":[{"byteLength":62160,"uri":"chest.bin"}]}