{"asset":{"generator":"Khronos glTF Blender I/O v0.9.36","version":"2.0"},"scene":0,"scenes":[{"name":"Scene","nodes":[0]}],"nodes":[{"mesh":0,"name":"coin"}],"materials":[{"name":"texture","pbrMetallicRoughness":{"baseColorTexture":{"index":0,"texCoord":0},"metallicFactor":0,"roughnessFactor":0.44999998807907104}}],"meshes":[{"name":"Cube.15966","primitives":[{"attributes":{"POSITION":0,"NORMAL":1,"TEXCOORD_0":2},"indices":3,"material":0}]}],"textures":[{"source":0}],"images":[{"name":"dungeon_texture","uri":"dungeon_texture.png"}],"accessors":[{"bufferView":0,"componentType":5126,"count":132,"max":[0.18001559376716614,0.06250226497650146,0.17998410761356354],"min":[-0.179996058344841,-0.06250369548797607,-0.1800275593996048],"type":"VEC3"},{"bufferView":1,"componentType":5126,"count":132,"type":"VEC3"},{"bufferView":2,"componentType":5126,"count":132,"type":"VEC2"},{"bufferView":3,"componentType":5123,"count":240,"type":"SCALAR"}],"bufferViews":[{"buffer":0,"byteLength":1584,"byteOffset":0},{"buffer":0,"byteLength":1584,"byteOffset":1584},{"buffer":0,"byteLength":1056,"byteOffset":3168},{"buffer":0,"byteLength":480,"byteOffset":4224}],"buffers":[{"byteLength":4704,"uri":"coin.bin"}]}