{"asset":{"generator":"Khronos glTF Blender I/O v0.9.36","version":"2.0"},"scene":0,"scenes":[{"name":"Scene","nodes":[0]}],"nodes":[{"mesh":0,"name":"coin_stack_large"}],"materials":[{"name":"texture","pbrMetallicRoughness":{"baseColorTexture":{"index":0,"texCoord":0},"metallicFactor":0,"roughnessFactor":0.44999998807907104}}],"meshes":[{"name":"Cube.15967","primitives":[{"attributes":{"POSITION":0,"NORMAL":1,"TEXCOORD_0":2},"indices":3,"material":0}]}],"textures":[{"source":0}],"images":[{"name":"dungeon_texture","uri":"dungeon_texture.png"}],"accessors":[{"bufferView":0,"componentType":5126,"count":2292,"max":[0.7171959280967712,1.1568886041641235,0.8431025743484497],"min":[-0.7193039059638977,0,-0.8155794143676758],"type":"VEC3"},{"bufferView":1,"componentType":5126,"count":2292,"type":"VEC3"},{"bufferView":2,"componentType":5126,"count":2292,"type":"VEC2"},{"bufferView":3,"componentType":5123,"count":5328,"type":"SCALAR"}],"bufferViews":[{"buffer":0,"byteLength":27504,"byteOffset":0},{"buffer":0,"byteLength":27504,"byteOffset":27504},{"buffer":0,"byteLength":18336,"byteOffset":55008},{"buffer":0,"byteLength":10656,"byteOffset":73344}],"buffers":[{"byteLength":84000,"uri":"coin_stack_large.bin"}]}