{"asset":{"generator":"Khronos glTF Blender I/O v0.9.36","version":"2.0"},"scene":0,"scenes":[{"name":"Scene","nodes":[0]}],"nodes":[{"mesh":0,"name":"coin_stack_small"}],"materials":[{"name":"texture","pbrMetallicRoughness":{"baseColorTexture":{"index":0,"texCoord":0},"metallicFactor":0,"roughnessFactor":0.44999998807907104}}],"meshes":[{"name":"Cube.15969","primitives":[{"attributes":{"POSITION":0,"NORMAL":1,"TEXCOORD_0":2},"indices":3,"material":0}]}],"textures":[{"source":0}],"images":[{"name":"dungeon_texture","uri":"dungeon_texture.png"}],"accessors":[{"bufferView":0,"componentType":5126,"count":588,"max":[0.5138642191886902,0.4782329797744751,0.43551626801490784],"min":[-0.4452475607395172,-5.960464477539062e-07,-0.4608292579650879],"type":"VEC3"},{"bufferView":1,"componentType":5126,"count":588,"type":"VEC3"},{"bufferView":2,"componentType":5126,"count":588,"type":"VEC2"},{"bufferView":3,"componentType":5123,"count":1248,"type":"SCALAR"}],"bufferViews":[{"buffer":0,"byteLength":7056,"byteOffset":0},{"buffer":0,"byteLength":7056,"byteOffset":7056},{"buffer":0,"byteLength":4704,"byteOffset":14112},{"buffer":0,"byteLength":2496,"byteOffset":18816}],"buffers":[{"byteLength":21312,"uri":"coin_stack_small.bin"}]}