{"asset":{"generator":"Khronos glTF Blender I/O v0.9.36","version":"2.0"},"scene":0,"scenes":[{"name":"Scene","nodes":[0]}],"nodes":[{"mesh":0,"name":"crates_stacked"}],"materials":[{"name":"texture","pbrMetallicRoughness":{"baseColorTexture":{"index":0,"texCoord":0},"metallicFactor":0,"roughnessFactor":0.44999998807907104}}],"meshes":[{"name":"Cube.15971","primitives":[{"attributes":{"POSITION":0,"NORMAL":1,"TEXCOORD_0":2},"indices":3,"material":0}]}],"textures":[{"source":0}],"images":[{"name":"dungeon_texture","uri":"dungeon_texture.png"}],"accessors":[{"bufferView":0,"componentType":5126,"count":2457,"max":[0.9991795420646667,2.142291784286499,1.0921534299850464],"min":[-1.0900040864944458,-4.049992185173323e-06,-1.15724778175354],"type":"VEC3"},{"bufferView":1,"componentType":5126,"count":2457,"type":"VEC3"},{"bufferView":2,"componentType":5126,"count":2457,"type":"VEC2"},{"bufferView":3,"componentType":5123,"count":3993,"type":"SCALAR"}],"bufferViews":[{"buffer":0,"byteLength":29484,"byteOffset":0},{"buffer":0,"byteLength":29484,"byteOffset":29484},{"buffer":0,"byteLength":19656,"byteOffset":58968},{"buffer":0,"byteLength":7986,"byteOffset":78624}],"buffers":[{"byteLength":86612,"uri":"crates_stacked.bin"}]}