{"asset":{"generator":"Khronos glTF Blender I/O v0.9.36","version":"2.0"},"scene":0,"scenes":[{"name":"Scene","nodes":[0]}],"nodes":[{"mesh":0,"name":"floor_dirt_large_rocky"}],"materials":[{"name":"texture","pbrMetallicRoughness":{"baseColorTexture":{"index":0,"texCoord":0},"metallicFactor":0,"roughnessFactor":0.44999998807907104}}],"meshes":[{"name":"Cube.15973","primitives":[{"attributes":{"POSITION":0,"NORMAL":1,"TEXCOORD_0":2},"indices":3,"material":0}]}],"textures":[{"source":0}],"images":[{"name":"dungeon_texture","uri":"dungeon_texture.png"}],"accessors":[{"bufferView":0,"componentType":5126,"count":375,"max":[2.000000238418579,0.2927926182746887,2.0000123977661133],"min":[-1.999999761581421,-0.09999999403953552,-1.9999877214431763],"type":"VEC3"},{"bufferView":1,"componentType":5126,"count":375,"type":"VEC3"},{"bufferView":2,"componentType":5126,"count":375,"type":"VEC2"},{"bufferView":3,"componentType":5123,"count":561,"type":"SCALAR"}],"bufferViews":[{"buffer":0,"byteLength":4500,"byteOffset":0},{"buffer":0,"byteLength":4500,"byteOffset":4500},{"buffer":0,"byteLength":3000,"byteOffset":9000},{"buffer":0,"byteLength":1122,"byteOffset":12000}],"buffers":[{"byteLength":13124,"uri":"floor_dirt_large_rocky.bin"}]}