{"asset":{"generator":"Khronos glTF Blender I/O v0.9.36","version":"2.0"},"scene":0,"scenes":[{"name":"Scene","nodes":[0]}],"nodes":[{"mesh":0,"name":"floor_tile_grate"}],"materials":[{"name":"texture","pbrMetallicRoughness":{"baseColorTexture":{"index":0,"texCoord":0},"metallicFactor":0,"roughnessFactor":0.44999998807907104}}],"meshes":[{"name":"Plane.000","primitives":[{"attributes":{"POSITION":0,"NORMAL":1,"TEXCOORD_0":2},"indices":3,"material":0}]}],"textures":[{"source":0}],"images":[{"name":"dungeon_texture","uri":"dungeon_texture.png"}],"accessors":[{"bufferView":0,"componentType":5126,"count":276,"max":[2,0.04999999701976776,1],"min":[-2,-0.9799999594688416,-1],"type":"VEC3"},{"bufferView":1,"componentType":5126,"count":276,"type":"VEC3"},{"bufferView":2,"componentType":5126,"count":276,"type":"VEC2"},{"bufferView":3,"componentType":5123,"count":426,"type":"SCALAR"}],"bufferViews":[{"buffer":0,"byteLength":3312,"byteOffset":0},{"buffer":0,"byteLength":3312,"byteOffset":3312},{"buffer":0,"byteLength":2208,"byteOffset":6624},{"buffer":0,"byteLength":852,"byteOffset":8832}],"buffers":[{"byteLength":9684,"uri":"floor_tile_grate.bin"}]}