{"asset":{"generator":"Khronos glTF Blender I/O v0.9.36","version":"2.0"},"scene":0,"scenes":[{"name":"Scene","nodes":[0]}],"nodes":[{"mesh":0,"name":"floor_wood_large"}],"materials":[{"name":"texture","pbrMetallicRoughness":{"baseColorTexture":{"index":0,"texCoord":0},"metallicFactor":0,"roughnessFactor":0.44999998807907104}}],"meshes":[{"name":"Cube.15999","primitives":[{"attributes":{"POSITION":0,"NORMAL":1,"TEXCOORD_0":2},"indices":3,"material":0}]}],"textures":[{"source":0}],"images":[{"name":"dungeon_texture","uri":"dungeon_texture.png"}],"accessors":[{"bufferView":0,"componentType":5126,"count":530,"max":[2,0.04999999701976776,2],"min":[-2,-0.10000000149011612,-2],"type":"VEC3"},{"bufferView":1,"componentType":5126,"count":530,"type":"VEC3"},{"bufferView":2,"componentType":5126,"count":530,"type":"VEC2"},{"bufferView":3,"componentType":5123,"count":816,"type":"SCALAR"}],"bufferViews":[{"buffer":0,"byteLength":6360,"byteOffset":0},{"buffer":0,"byteLength":6360,"byteOffset":6360},{"buffer":0,"byteLength":4240,"byteOffset":12720},{"buffer":0,"byteLength":1632,"byteOffset":16960}],"buffers":[{"byteLength":18592,"uri":"floor_wood_large.bin"}]}