{"asset":{"generator":"Khronos glTF Blender I/O v0.9.36","version":"2.0"},"scene":0,"scenes":[{"name":"Scene","nodes":[0]}],"nodes":[{"mesh":0,"name":"floor_dirt_small_A"}],"materials":[{"name":"texture","pbrMetallicRoughness":{"baseColorTexture":{"index":0,"texCoord":0},"metallicFactor":0,"roughnessFactor":0.44999998807907104}}],"meshes":[{"name":"Cube.15974","primitives":[{"attributes":{"POSITION":0,"NORMAL":1,"TEXCOORD_0":2},"indices":3,"material":0}]}],"textures":[{"source":0}],"images":[{"name":"dungeon_texture","uri":"dungeon_texture.png"}],"accessors":[{"bufferView":0,"componentType":5126,"count":97,"max":[0.9999876022338867,0.08640525490045547,0.9999996423721313],"min":[-1.0000123977661133,-0.09999999403953552,-1.0000003576278687],"type":"VEC3"},{"bufferView":1,"componentType":5126,"count":97,"type":"VEC3"},{"bufferView":2,"componentType":5126,"count":97,"type":"VEC2"},{"bufferView":3,"componentType":5123,"count":135,"type":"SCALAR"}],"bufferViews":[{"buffer":0,"byteLength":1164,"byteOffset":0},{"buffer":0,"byteLength":1164,"byteOffset":1164},{"buffer":0,"byteLength":776,"byteOffset":2328},{"buffer":0,"byteLength":270,"byteOffset":3104}],"buffers":[{"byteLength":3376,"uri":"floor_dirt_small_A.bin"}]}