{"asset":{"generator":"Khronos glTF Blender I/O v0.9.36","version":"2.0"},"scene":0,"scenes":[{"name":"Scene","nodes":[0]}],"nodes":[{"mesh":0,"name":"floor_dirt_small_weeds"}],"materials":[{"name":"texture","pbrMetallicRoughness":{"baseColorTexture":{"index":0,"texCoord":0},"metallicFactor":0,"roughnessFactor":0.44999998807907104}}],"meshes":[{"name":"Cube.15979","primitives":[{"attributes":{"POSITION":0,"NORMAL":1,"TEXCOORD_0":2},"indices":3,"material":0}]}],"textures":[{"source":0}],"images":[{"name":"dungeon_texture","uri":"dungeon_texture.png"}],"accessors":[{"bufferView":0,"componentType":5126,"count":676,"max":[0.9999876022338867,0.19547581672668457,0.9999996423721313],"min":[-1.0000123977661133,-0.09999999403953552,-1.0000003576278687],"type":"VEC3"},{"bufferView":1,"componentType":5126,"count":676,"type":"VEC3"},{"bufferView":2,"componentType":5126,"count":676,"type":"VEC2"},{"bufferView":3,"componentType":5123,"count":1248,"type":"SCALAR"}],"bufferViews":[{"buffer":0,"byteLength":8112,"byteOffset":0},{"buffer":0,"byteLength":8112,"byteOffset":8112},{"buffer":0,"byteLength":5408,"byteOffset":16224},{"buffer":0,"byteLength":2496,"byteOffset":21632}],"buffers":[{"byteLength":24128,"uri":"floor_dirt_small_weeds.bin"}]}