{"asset":{"generator":"Khronos glTF Blender I/O v0.9.36","version":"2.0"},"scene":0,"scenes":[{"name":"Scene","nodes":[0]}],"nodes":[{"mesh":0,"name":"floor_dirt_large"}],"materials":[{"name":"texture","pbrMetallicRoughness":{"baseColorTexture":{"index":0,"texCoord":0},"metallicFactor":0,"roughnessFactor":0.44999998807907104}}],"meshes":[{"name":"Cube.15972","primitives":[{"attributes":{"POSITION":0,"NORMAL":1,"TEXCOORD_0":2},"indices":3,"material":0}]}],"textures":[{"source":0}],"images":[{"name":"dungeon_texture","uri":"dungeon_texture.png"}],"accessors":[{"bufferView":0,"componentType":5126,"count":216,"max":[2.000000238418579,0.10860617458820343,2.0000123977661133],"min":[-1.999999761581421,-0.09999999403953552,-1.9999877214431763],"type":"VEC3"},{"bufferView":1,"componentType":5126,"count":216,"type":"VEC3"},{"bufferView":2,"componentType":5126,"count":216,"type":"VEC2"},{"bufferView":3,"componentType":5123,"count":312,"type":"SCALAR"}],"bufferViews":[{"buffer":0,"byteLength":2592,"byteOffset":0},{"buffer":0,"byteLength":2592,"byteOffset":2592},{"buffer":0,"byteLength":1728,"byteOffset":5184},{"buffer":0,"byteLength":624,"byteOffset":6912}],"buffers":[{"byteLength":7536,"uri":"floor_dirt_large.bin"}]}