{"asset":{"generator":"Khronos glTF Blender I/O v0.9.36","version":"2.0"},"scene":0,"scenes":[{"name":"Scene","nodes":[0]}],"nodes":[{"mesh":0,"name":"keg"}],"materials":[{"name":"texture","pbrMetallicRoughness":{"baseColorTexture":{"index":0,"texCoord":0},"metallicFactor":0,"roughnessFactor":0.44999998807907104}}],"meshes":[{"name":"Cylinder.014","primitives":[{"attributes":{"POSITION":0,"NORMAL":1,"TEXCOORD_0":2},"indices":3,"material":0}]}],"textures":[{"source":0}],"images":[{"name":"dungeon_texture","uri":"dungeon_texture.png"}],"accessors":[{"bufferView":0,"componentType":5126,"count":1187,"max":[0.8999990224838257,2.050724506378174,1.0243921279907227],"min":[-0.9000009894371033,3.5762786865234375e-07,-0.9756078720092773],"type":"VEC3"},{"bufferView":1,"componentType":5126,"count":1187,"type":"VEC3"},{"bufferView":2,"componentType":5126,"count":1187,"type":"VEC2"},{"bufferView":3,"componentType":5123,"count":2421,"type":"SCALAR"}],"bufferViews":[{"buffer":0,"byteLength":14244,"byteOffset":0},{"buffer":0,"byteLength":14244,"byteOffset":14244},{"buffer":0,"byteLength":9496,"byteOffset":28488},{"buffer":0,"byteLength":4842,"byteOffset":37984}],"buffers":[{"byteLength":42828,"uri":"keg.bin"}]}