{"asset":{"generator":"Khronos glTF Blender I/O v0.9.36","version":"2.0"},"scene":0,"scenes":[{"name":"Scene","nodes":[0]}],"nodes":[{"mesh":0,"name":"pillar"}],"materials":[{"name":"texture","pbrMetallicRoughness":{"baseColorTexture":{"index":0,"texCoord":0},"metallicFactor":0,"roughnessFactor":0.44999998807907104}}],"meshes":[{"name":"Cube.16004","primitives":[{"attributes":{"POSITION":0,"NORMAL":1,"TEXCOORD_0":2},"indices":3,"material":0}]}],"textures":[{"source":0}],"images":[{"name":"dungeon_texture","uri":"dungeon_texture.png"}],"accessors":[{"bufferView":0,"componentType":5126,"count":241,"max":[0.7499879598617554,4,0.75],"min":[-0.7500120401382446,0,-0.7499999403953552],"type":"VEC3"},{"bufferView":1,"componentType":5126,"count":241,"type":"VEC3"},{"bufferView":2,"componentType":5126,"count":241,"type":"VEC2"},{"bufferView":3,"componentType":5123,"count":408,"type":"SCALAR"}],"bufferViews":[{"buffer":0,"byteLength":2892,"byteOffset":0},{"buffer":0,"byteLength":2892,"byteOffset":2892},{"buffer":0,"byteLength":1928,"byteOffset":5784},{"buffer":0,"byteLength":816,"byteOffset":7712}],"buffers":[{"byteLength":8528,"uri":"pillar.bin"}]}