{"asset":{"generator":"Khronos glTF Blender I/O v0.9.36","version":"2.0"},"scene":0,"scenes":[{"name":"Scene","nodes":[0]}],"nodes":[{"mesh":0,"name":"rubble_half"}],"materials":[{"name":"texture","pbrMetallicRoughness":{"baseColorTexture":{"index":0,"texCoord":0},"metallicFactor":0,"roughnessFactor":0.44999998807907104}}],"meshes":[{"name":"Cube.16006","primitives":[{"attributes":{"POSITION":0,"NORMAL":1,"TEXCOORD_0":2},"indices":3,"material":0}]}],"textures":[{"source":0}],"images":[{"name":"dungeon_texture","uri":"dungeon_texture.png"}],"accessors":[{"bufferView":0,"componentType":5126,"count":607,"max":[3.9996535778045654,3.5,1.483696460723877],"min":[-1.1812772982011666e-12,-6.056272372489957e-09,-1.5163036584854126],"type":"VEC3"},{"bufferView":1,"componentType":5126,"count":607,"type":"VEC3"},{"bufferView":2,"componentType":5126,"count":607,"type":"VEC2"},{"bufferView":3,"componentType":5123,"count":1170,"type":"SCALAR"}],"bufferViews":[{"buffer":0,"byteLength":7284,"byteOffset":0},{"buffer":0,"byteLength":7284,"byteOffset":7284},{"buffer":0,"byteLength":4856,"byteOffset":14568},{"buffer":0,"byteLength":2340,"byteOffset":19424}],"buffers":[{"byteLength":21764,"uri":"rubble_half.bin"}]}