{"asset":{"generator":"Khronos glTF Blender I/O v0.9.36","version":"2.0"},"scene":0,"scenes":[{"name":"Scene","nodes":[0]}],"nodes":[{"mesh":0,"name":"shelves"}],"materials":[{"name":"texture","pbrMetallicRoughness":{"baseColorTexture":{"index":0,"texCoord":0},"metallicFactor":0,"roughnessFactor":0.44999998807907104}}],"meshes":[{"name":"Cube.16011","primitives":[{"attributes":{"POSITION":0,"NORMAL":1,"TEXCOORD_0":2},"indices":3,"material":0}]}],"textures":[{"source":0}],"images":[{"name":"dungeon_texture","uri":"dungeon_texture.png"}],"accessors":[{"bufferView":0,"componentType":5126,"count":284,"max":[1,2.6999998092651367,0.75],"min":[-1,0.75,0.25],"type":"VEC3"},{"bufferView":1,"componentType":5126,"count":284,"type":"VEC3"},{"bufferView":2,"componentType":5126,"count":284,"type":"VEC2"},{"bufferView":3,"componentType":5123,"count":456,"type":"SCALAR"}],"bufferViews":[{"buffer":0,"byteLength":3408,"byteOffset":0},{"buffer":0,"byteLength":3408,"byteOffset":3408},{"buffer":0,"byteLength":2272,"byteOffset":6816},{"buffer":0,"byteLength":912,"byteOffset":9088}],"buffers":[{"byteLength":10000,"uri":"shelves.bin"}]}