{"asset":{"generator":"Khronos glTF Blender I/O v0.9.36","version":"2.0"},"scene":0,"scenes":[{"name":"Scene","nodes":[0]}],"nodes":[{"mesh":0,"name":"shelf_small"}],"materials":[{"name":"texture","pbrMetallicRoughness":{"baseColorTexture":{"index":0,"texCoord":0},"metallicFactor":0,"roughnessFactor":0.44999998807907104}}],"meshes":[{"name":"Cube.16009","primitives":[{"attributes":{"POSITION":0,"NORMAL":1,"TEXCOORD_0":2},"indices":3,"material":0}]}],"textures":[{"source":0}],"images":[{"name":"dungeon_texture","uri":"dungeon_texture.png"}],"accessors":[{"bufferView":0,"componentType":5126,"count":110,"max":[0.4999999701976776,0.09999990463256836,0.5],"min":[-0.5,-0.30000001192092896,-1.4901161193847656e-08],"type":"VEC3"},{"bufferView":1,"componentType":5126,"count":110,"type":"VEC3"},{"bufferView":2,"componentType":5126,"count":110,"type":"VEC2"},{"bufferView":3,"componentType":5123,"count":180,"type":"SCALAR"}],"bufferViews":[{"buffer":0,"byteLength":1320,"byteOffset":0},{"buffer":0,"byteLength":1320,"byteOffset":1320},{"buffer":0,"byteLength":880,"byteOffset":2640},{"buffer":0,"byteLength":360,"byteOffset":3520}],"buffers":[{"byteLength":3880,"uri":"shelf_small.bin"}]}