{"asset":{"generator":"Khronos glTF Blender I/O v0.9.36","version":"2.0"},"scene":0,"scenes":[{"name":"Scene","nodes":[0]}],"nodes":[{"mesh":0,"name":"stairs_wood"}],"materials":[{"name":"texture","pbrMetallicRoughness":{"baseColorTexture":{"index":0,"texCoord":0},"metallicFactor":0,"roughnessFactor":0.44999998807907104}}],"meshes":[{"name":"Cube.16018","primitives":[{"attributes":{"POSITION":0,"NORMAL":1,"TEXCOORD_0":2},"indices":3,"material":0}]}],"textures":[{"source":0}],"images":[{"name":"dungeon_texture","uri":"dungeon_texture.png"}],"accessors":[{"bufferView":0,"componentType":5126,"count":494,"max":[1.649999976158142,4.050000190734863,6],"min":[-1.649999976158142,-6.705522537231445e-08,0],"type":"VEC3"},{"bufferView":1,"componentType":5126,"count":494,"type":"VEC3"},{"bufferView":2,"componentType":5126,"count":494,"type":"VEC2"},{"bufferView":3,"componentType":5123,"count":888,"type":"SCALAR"}],"bufferViews":[{"buffer":0,"byteLength":5928,"byteOffset":0},{"buffer":0,"byteLength":5928,"byteOffset":5928},{"buffer":0,"byteLength":3952,"byteOffset":11856},{"buffer":0,"byteLength":1776,"byteOffset":15808}],"buffers":[{"byteLength":17584,"uri":"stairs_wood.bin"}]}