{"asset":{"generator":"Khronos glTF Blender I/O v0.9.36","version":"2.0"},"scene":0,"scenes":[{"name":"Scene","nodes":[0]}],"nodes":[{"mesh":0,"name":"stool"}],"materials":[{"name":"texture","pbrMetallicRoughness":{"baseColorTexture":{"index":0,"texCoord":0},"metallicFactor":0,"roughnessFactor":0.44999998807907104}}],"meshes":[{"name":"Cube.16020","primitives":[{"attributes":{"POSITION":0,"NORMAL":1,"TEXCOORD_0":2},"indices":3,"material":0}]}],"textures":[{"source":0}],"images":[{"name":"dungeon_texture","uri":"dungeon_texture.png"}],"accessors":[{"bufferView":0,"componentType":5126,"count":326,"max":[0.3762931525707245,0.5,0.37500765919685364],"min":[-0.3737069070339203,2.9802322387695312e-08,-0.375003844499588],"type":"VEC3"},{"bufferView":1,"componentType":5126,"count":326,"type":"VEC3"},{"bufferView":2,"componentType":5126,"count":326,"type":"VEC2"},{"bufferView":3,"componentType":5123,"count":516,"type":"SCALAR"}],"bufferViews":[{"buffer":0,"byteLength":3912,"byteOffset":0},{"buffer":0,"byteLength":3912,"byteOffset":3912},{"buffer":0,"byteLength":2608,"byteOffset":7824},{"buffer":0,"byteLength":1032,"byteOffset":10432}],"buffers":[{"byteLength":11464,"uri":"stool.bin"}]}