{"asset":{"generator":"Khronos glTF Blender I/O v0.9.36","version":"2.0"},"scene":0,"scenes":[{"name":"Scene","nodes":[0]}],"nodes":[{"mesh":0,"name":"sword_shield_broken"}],"materials":[{"name":"texture","pbrMetallicRoughness":{"baseColorTexture":{"index":0,"texCoord":0},"metallicFactor":0,"roughnessFactor":0.44999998807907104}}],"meshes":[{"name":"Plane.003","primitives":[{"attributes":{"POSITION":0,"NORMAL":1,"TEXCOORD_0":2},"indices":3,"material":0}]}],"textures":[{"source":0}],"images":[{"name":"dungeon_texture","uri":"dungeon_texture.png"}],"accessors":[{"bufferView":0,"componentType":5126,"count":641,"max":[0.6670413613319397,1.1692988872528076,0.25116875767707825],"min":[-0.758600115776062,-0.7929981350898743,-0.08457357436418533],"type":"VEC3"},{"bufferView":1,"componentType":5126,"count":641,"type":"VEC3"},{"bufferView":2,"componentType":5126,"count":641,"type":"VEC2"},{"bufferView":3,"componentType":5123,"count":1188,"type":"SCALAR"}],"bufferViews":[{"buffer":0,"byteLength":7692,"byteOffset":0},{"buffer":0,"byteLength":7692,"byteOffset":7692},{"buffer":0,"byteLength":5128,"byteOffset":15384},{"buffer":0,"byteLength":2376,"byteOffset":20512}],"buffers":[{"byteLength":22888,"uri":"sword_shield_broken.bin"}]}