{"asset":{"generator":"Khronos glTF Blender I/O v0.9.36","version":"2.0"},"scene":0,"scenes":[{"name":"Scene","nodes":[0]}],"nodes":[{"mesh":0,"name":"table_medium_broken"}],"materials":[{"name":"texture","pbrMetallicRoughness":{"baseColorTexture":{"index":0,"texCoord":0},"metallicFactor":0,"roughnessFactor":0.44999998807907104}}],"meshes":[{"name":"Cube.16028","primitives":[{"attributes":{"POSITION":0,"NORMAL":1,"TEXCOORD_0":2},"indices":3,"material":0}]}],"textures":[{"source":0}],"images":[{"name":"dungeon_texture","uri":"dungeon_texture.png"}],"accessors":[{"bufferView":0,"componentType":5126,"count":519,"max":[1.2258657217025757,0.969937264919281,1.4677635431289673],"min":[-1.0508499145507812,-0.0018260342767462134,-0.9606289267539978],"type":"VEC3"},{"bufferView":1,"componentType":5126,"count":519,"type":"VEC3"},{"bufferView":2,"componentType":5126,"count":519,"type":"VEC2"},{"bufferView":3,"componentType":5123,"count":741,"type":"SCALAR"}],"bufferViews":[{"buffer":0,"byteLength":6228,"byteOffset":0},{"buffer":0,"byteLength":6228,"byteOffset":6228},{"buffer":0,"byteLength":4152,"byteOffset":12456},{"buffer":0,"byteLength":1482,"byteOffset":16608}],"buffers":[{"byteLength":18092,"uri":"table_medium_broken.bin"}]}