{"asset":{"generator":"Khronos glTF Blender I/O v0.9.36","version":"2.0"},"scene":0,"scenes":[{"name":"Scene","nodes":[0]}],"nodes":[{"mesh":0,"name":"table_long"}],"materials":[{"name":"texture","pbrMetallicRoughness":{"baseColorTexture":{"index":0,"texCoord":0},"metallicFactor":0,"roughnessFactor":0.44999998807907104}}],"meshes":[{"name":"Cube.16021","primitives":[{"attributes":{"POSITION":0,"NORMAL":1,"TEXCOORD_0":2},"indices":3,"material":0}]}],"textures":[{"source":0}],"images":[{"name":"dungeon_texture","uri":"dungeon_texture.png"}],"accessors":[{"bufferView":0,"componentType":5126,"count":513,"max":[1,1,2.000000476837158],"min":[-1.0000003576278687,8.195638656616211e-08,-2],"type":"VEC3"},{"bufferView":1,"componentType":5126,"count":513,"type":"VEC3"},{"bufferView":2,"componentType":5126,"count":513,"type":"VEC2"},{"bufferView":3,"componentType":5123,"count":840,"type":"SCALAR"}],"bufferViews":[{"buffer":0,"byteLength":6156,"byteOffset":0},{"buffer":0,"byteLength":6156,"byteOffset":6156},{"buffer":0,"byteLength":4104,"byteOffset":12312},{"buffer":0,"byteLength":1680,"byteOffset":16416}],"buffers":[{"byteLength":18096,"uri":"table_long.bin"}]}