{"asset":{"generator":"Khronos glTF Blender I/O v0.9.36","version":"2.0"},"scene":0,"scenes":[{"name":"Scene","nodes":[0]}],"nodes":[{"mesh":0,"name":"table_small"}],"materials":[{"name":"texture","pbrMetallicRoughness":{"baseColorTexture":{"index":0,"texCoord":0},"metallicFactor":0,"roughnessFactor":0.44999998807907104}}],"meshes":[{"name":"Cube.16032","primitives":[{"attributes":{"POSITION":0,"NORMAL":1,"TEXCOORD_0":2},"indices":3,"material":0}]}],"textures":[{"source":0}],"images":[{"name":"dungeon_texture","uri":"dungeon_texture.png"}],"accessors":[{"bufferView":0,"componentType":5126,"count":366,"max":[0.4991810619831085,1,0.4997994303703308],"min":[-0.5008190274238586,0,-0.5002005696296692],"type":"VEC3"},{"bufferView":1,"componentType":5126,"count":366,"type":"VEC3"},{"bufferView":2,"componentType":5126,"count":366,"type":"VEC2"},{"bufferView":3,"componentType":5123,"count":576,"type":"SCALAR"}],"bufferViews":[{"buffer":0,"byteLength":4392,"byteOffset":0},{"buffer":0,"byteLength":4392,"byteOffset":4392},{"buffer":0,"byteLength":2928,"byteOffset":8784},{"buffer":0,"byteLength":1152,"byteOffset":11712}],"buffers":[{"byteLength":12864,"uri":"table_small.bin"}]}