{"asset":{"generator":"Khronos glTF Blender I/O v0.9.36","version":"2.0"},"scene":0,"scenes":[{"name":"Scene","nodes":[0]}],"nodes":[{"mesh":0,"name":"torch_mounted"}],"materials":[{"name":"texture","pbrMetallicRoughness":{"baseColorTexture":{"index":0,"texCoord":0},"metallicFactor":0,"roughnessFactor":0.44999998807907104}}],"meshes":[{"name":"Cylinder.022","primitives":[{"attributes":{"POSITION":0,"NORMAL":1,"TEXCOORD_0":2},"indices":3,"material":0}]}],"textures":[{"source":0}],"images":[{"name":"dungeon_texture","uri":"dungeon_texture.png"}],"accessors":[{"bufferView":0,"componentType":5126,"count":452,"max":[0.2751467823982239,0.6816596984863281,0.615840494632721],"min":[-0.2751365005970001,-0.3808070421218872,-4.093442029784455e-09],"type":"VEC3"},{"bufferView":1,"componentType":5126,"count":452,"type":"VEC3"},{"bufferView":2,"componentType":5126,"count":452,"type":"VEC2"},{"bufferView":3,"componentType":5123,"count":834,"type":"SCALAR"}],"bufferViews":[{"buffer":0,"byteLength":5424,"byteOffset":0},{"buffer":0,"byteLength":5424,"byteOffset":5424},{"buffer":0,"byteLength":3616,"byteOffset":10848},{"buffer":0,"byteLength":1668,"byteOffset":14464}],"buffers":[{"byteLength":16132,"uri":"torch_mounted.bin"}]}