{"asset":{"generator":"Khronos glTF Blender I/O v0.9.36","version":"2.0"},"scene":0,"scenes":[{"name":"Scene","nodes":[0]}],"nodes":[{"mesh":0,"name":"wall_corner"}],"materials":[{"name":"texture","pbrMetallicRoughness":{"baseColorTexture":{"index":0,"texCoord":0},"metallicFactor":0,"roughnessFactor":0.44999998807907104}}],"meshes":[{"name":"Cube.16052","primitives":[{"attributes":{"POSITION":0,"NORMAL":1,"TEXCOORD_0":2},"indices":3,"material":0}]}],"textures":[{"source":0}],"images":[{"name":"dungeon_texture","uri":"dungeon_texture.png"}],"accessors":[{"bufferView":0,"componentType":5126,"count":923,"max":[0.5000000596046448,4,2.00006103515625],"min":[-2,0,-0.5],"type":"VEC3"},{"bufferView":1,"componentType":5126,"count":923,"type":"VEC3"},{"bufferView":2,"componentType":5126,"count":923,"type":"VEC2"},{"bufferView":3,"componentType":5123,"count":1329,"type":"SCALAR"}],"bufferViews":[{"buffer":0,"byteLength":11076,"byteOffset":0},{"buffer":0,"byteLength":11076,"byteOffset":11076},{"buffer":0,"byteLength":7384,"byteOffset":22152},{"buffer":0,"byteLength":2658,"byteOffset":29536}],"buffers":[{"byteLength":32196,"uri":"wall_corner.bin"}]}