{"asset":{"generator":"Khronos glTF Blender I/O v0.9.36","version":"2.0"},"scene":0,"scenes":[{"name":"Scene","nodes":[0]}],"nodes":[{"mesh":0,"name":"wall_doorway_sides"}],"materials":[{"name":"texture","pbrMetallicRoughness":{"baseColorTexture":{"index":0,"texCoord":0},"metallicFactor":0,"roughnessFactor":0.44999998807907104}}],"meshes":[{"name":"Cube.16059","primitives":[{"attributes":{"POSITION":0,"NORMAL":1,"TEXCOORD_0":2},"indices":3,"material":0}]}],"textures":[{"source":0}],"images":[{"name":"dungeon_texture","uri":"dungeon_texture.png"}],"accessors":[{"bufferView":0,"componentType":5126,"count":2293,"max":[2.500000476837158,4,2],"min":[-2.5000007152557373,0,-2],"type":"VEC3"},{"bufferView":1,"componentType":5126,"count":2293,"type":"VEC3"},{"bufferView":2,"componentType":5126,"count":2293,"type":"VEC2"},{"bufferView":3,"componentType":5123,"count":3480,"type":"SCALAR"}],"bufferViews":[{"buffer":0,"byteLength":27516,"byteOffset":0},{"buffer":0,"byteLength":27516,"byteOffset":27516},{"buffer":0,"byteLength":18344,"byteOffset":55032},{"buffer":0,"byteLength":6960,"byteOffset":73376}],"buffers":[{"byteLength":80336,"uri":"wall_doorway_sides.bin"}]}