{"asset":{"generator":"Khronos glTF Blender I/O v0.9.36","version":"2.0"},"scene":0,"scenes":[{"name":"Scene","nodes":[0]}],"nodes":[{"mesh":0,"name":"wall_window_open"}],"materials":[{"name":"texture","pbrMetallicRoughness":{"baseColorTexture":{"index":0,"texCoord":0},"metallicFactor":0,"roughnessFactor":0.44999998807907104}}],"meshes":[{"name":"Cube.16072","primitives":[{"attributes":{"POSITION":0,"NORMAL":1,"TEXCOORD_0":2},"indices":3,"material":0}]}],"textures":[{"source":0}],"images":[{"name":"dungeon_texture","uri":"dungeon_texture.png"}],"accessors":[{"bufferView":0,"componentType":5126,"count":1144,"max":[2,4,0.4999999701976776],"min":[-2,0,-0.4999999701976776],"type":"VEC3"},{"bufferView":1,"componentType":5126,"count":1144,"type":"VEC3"},{"bufferView":2,"componentType":5126,"count":1144,"type":"VEC2"},{"bufferView":3,"componentType":5123,"count":1812,"type":"SCALAR"}],"bufferViews":[{"buffer":0,"byteLength":13728,"byteOffset":0},{"buffer":0,"byteLength":13728,"byteOffset":13728},{"buffer":0,"byteLength":9152,"byteOffset":27456},{"buffer":0,"byteLength":3624,"byteOffset":36608}],"buffers":[{"byteLength":40232,"uri":"wall_window_open.bin"}]}