{"asset":{"generator":"Khronos glTF Blender I/O v0.9.36","version":"2.0"},"scene":0,"scenes":[{"name":"Scene","nodes":[0]}],"nodes":[{"mesh":0,"name":"wall_half"}],"materials":[{"name":"texture","pbrMetallicRoughness":{"baseColorTexture":{"index":0,"texCoord":0},"metallicFactor":0,"roughnessFactor":0.44999998807907104}}],"meshes":[{"name":"Cube.16062","primitives":[{"attributes":{"POSITION":0,"NORMAL":1,"TEXCOORD_0":2},"indices":3,"material":0}]}],"textures":[{"source":0}],"images":[{"name":"dungeon_texture","uri":"dungeon_texture.png"}],"accessors":[{"bufferView":0,"componentType":5126,"count":568,"max":[2.000000238418579,4,0.5],"min":[-1.6292068494294654e-07,0,-0.5000006556510925],"type":"VEC3"},{"bufferView":1,"componentType":5126,"count":568,"type":"VEC3"},{"bufferView":2,"componentType":5126,"count":568,"type":"VEC2"},{"bufferView":3,"componentType":5123,"count":816,"type":"SCALAR"}],"bufferViews":[{"buffer":0,"byteLength":6816,"byteOffset":0},{"buffer":0,"byteLength":6816,"byteOffset":6816},{"buffer":0,"byteLength":4544,"byteOffset":13632},{"buffer":0,"byteLength":1632,"byteOffset":18176}],"buffers":[{"byteLength":19808,"uri":"wall_half.bin"}]}