{"asset":{"generator":"Khronos glTF Blender I/O v0.9.36","version":"2.0"},"scene":0,"scenes":[{"name":"Scene","nodes":[0]}],"nodes":[{"mesh":0,"name":"wall"}],"materials":[{"name":"texture","pbrMetallicRoughness":{"baseColorTexture":{"index":0,"texCoord":0},"metallicFactor":0,"roughnessFactor":0.44999998807907104}}],"meshes":[{"name":"Cube.16044","primitives":[{"attributes":{"POSITION":0,"NORMAL":1,"TEXCOORD_0":2},"indices":3,"material":0}]}],"textures":[{"source":0}],"images":[{"name":"dungeon_texture","uri":"dungeon_texture.png"}],"accessors":[{"bufferView":0,"componentType":5126,"count":1037,"max":[2,4,0.5],"min":[-2,0,-0.5],"type":"VEC3"},{"bufferView":1,"componentType":5126,"count":1037,"type":"VEC3"},{"bufferView":2,"componentType":5126,"count":1037,"type":"VEC2"},{"bufferView":3,"componentType":5123,"count":1482,"type":"SCALAR"}],"bufferViews":[{"buffer":0,"byteLength":12444,"byteOffset":0},{"buffer":0,"byteLength":12444,"byteOffset":12444},{"buffer":0,"byteLength":8296,"byteOffset":24888},{"buffer":0,"byteLength":2964,"byteOffset":33184}],"buffers":[{"byteLength":36148,"uri":"wall.bin"}]}